<svg xmlns="http://www.w3.org/2000/svg" xmlns:xlink="http://www.w3.org/1999/xlink" version="1.1" id="Layer_1" x="0px" y="0px" width="951" height="928" viewBox="0 0 951 928" style="enable-background:new 0 0 951 928;" xml:space="preserve">
<g>
	<path style="fill:#F5F6F7;" d="M107.4,740.4c-45.2,0-82,36.8-82,82s36.8,82,82,82s82-36.8,82-82S152.6,740.4,107.4,740.4z    M107.4,878.4c-30.9,0-56-25.1-56-56s25.1-56,56-56s56,25.1,56,56S138.3,878.4,107.4,878.4z"/>
	<path style="fill:#F5F6F7;" d="M615.8,740.4c-45.2,0-82,36.8-82,82s36.8,82,82,82s82-36.8,82-82S661,740.4,615.8,740.4z    M615.8,878.4c-30.9,0-56-25.1-56-56s25.1-56,56-56s56,25.1,56,56S646.6,878.4,615.8,878.4z"/>
	<path style="fill:#F5F6F7;" d="M903.3,550h-69.5l-55.5-133.2h71.9V281.1h-392l-47,80.8H-94.6l-148.2,146.8l308.2,75.5v67.6   c-76.8,18.9-133.9,88.1-133.9,170.6c0,97,78.9,175.9,175.9,175.9c92.6,0,168.5-71.9,175.2-162.8h158   c6.7,90.9,82.6,162.8,175.2,162.8s168.5-72,175.2-162.9h112.3V550z M-83.9,387.9h510l47-80.8h351v83.7H513.4L381.8,634.9   l-573.2-140.4L-83.9,387.9z M107.4,972.2c-82.6,0-149.8-67.2-149.8-149.8s67.2-149.8,149.8-149.8s149.8,67.2,149.8,149.8   S190,972.2,107.4,972.2z M615.8,972.2C533.2,972.2,466,905,466,822.4s67.2-149.8,149.8-149.8s149.8,67.2,149.8,149.8   S698.4,972.2,615.8,972.2z M877.2,809.4H791c-6.7-90.9-82.6-162.8-175.2-162.8s-168.5,71.9-175.2,162.8h-158   c-6.7-90.9-82.6-162.8-175.2-162.8c-5.4,0-10.6,0.3-15.9,0.8v-56.8L395.1,665l133.8-248.1h221.2l66.3,159.2h60.8V809.4z"/>
	<path style="fill:#F5F6F7;" d="M594.5,451.1v129.8h187l-54.3-129.8L594.5,451.1L594.5,451.1z M620.6,554.9v-77.7h89.3l32.5,77.7   H620.6z"/>
</g>
</svg>