<svg xmlns="http://www.w3.org/2000/svg" xmlns:xlink="http://www.w3.org/1999/xlink" version="1.1" id="Layer_1" x="0px" y="0px" width="951" height="928" viewBox="0 0 951 928" style="enable-background:new 0 0 951 928;" xml:space="preserve">
<rect x="-41.2" y="-38.2" style="fill:#F5F6F7;" width="1056.1" height="1014.1"/>
<path style="fill:#FFFFFF;" d="M2845.5,707.7c-59.8-33.3-114.9-70.1-165.6-108.9v-1.3h-1.6C2389.6,375.5,2245.2,86.7,2203.8-7  c-3.3-7.5-10.7-12.2-19-12.2h-15.4c-8.3,0-15.6,5-19.1,12.5c-7.3,15.6-14.6,27.4-23.5,41.9c-141.9,230.9-264.6,423.1-633.8,579.2  l-7.5,3.2H1414h-71.5l-7.5-3.2C965.7,458.3,843,266.2,701.1,35.2c-8.9-14.5-16.2-26.3-23.5-41.9c-3.5-7.5-10.8-12.5-19.1-12.5h-15.4  c-8.2,0-15.6,4.7-19,12.2c-41.4,93.7-185.8,382.5-474.5,604.5H148v1.3C97.2,637.6,42.1,674.4-17.7,707.7H-104v31.5h740v236.2h31.5  V739.2h746.4h746.4v236.2h31.5V739.2h740v-31.5H2845.5z M147.9,707.7H44.1c36.4-22.2,71-45.6,103.9-70v70H147.9z M305.4,707.7h-126  V614c45.6-35.7,87.4-73,126-110.9V707.7z M462.8,707.7h-126V471.5h-0.2c47.7-49.6,89.6-99.6,126.2-148V707.7z M636,707.7H494.3  V282.6h-1.5C561.7,185.7,608.6,98.9,636,42.1V707.7z M809.2,707.7H667.5v-667c2.2,3.7,4.5,7.3,6.8,11  c44.2,71.9,86.6,140.2,134.9,204.8L809.2,707.7L809.2,707.7z M966.7,707.7h-126V297c36.9,45.5,78.2,89.1,126,131V707.7z   M1124.1,707.7h-126v-253c37.6,30.4,79,59.9,126,88.3V707.7z M1313.1,707.7h-157.5V561.2c47.3,26.9,99,53,157.5,78.2V707.7z   M1483.3,707.7h-69.4h-69.4v-58.6h69.4h69.4V707.7z M1672.3,707.7h-157.5v-68.3c58.5-25.2,110.2-51.3,157.5-78.2V707.7z   M1829.7,707.7h-126V543c46.9-28.5,88.4-57.9,126-88.3V707.7z M1987.2,707.7h-126V428.1c47.8-41.9,89-85.5,126-131V707.7z   M2160.4,707.7h-141.7V256.5c48.3-64.7,90.7-132.9,134.9-204.8c2.2-3.7,4.5-7.3,6.8-11V707.7z M2333.5,282.6v425.1h-141.7V42.1  c27.4,56.8,74.3,143.6,143.2,240.5H2333.5z M2491,471.5v236.2h-126V323.6c36.6,48.3,78.5,98.3,126.2,148h-0.2V471.5z M2648.4,707.7  h-126V503c38.5,37.9,80.4,75.2,126,110.9V707.7z M2679.9,707.7v-70c32.9,24.4,67.4,47.8,103.9,70H2679.9z"/>
</svg>