<svg xmlns="http://www.w3.org/2000/svg" xmlns:xlink="http://www.w3.org/1999/xlink" version="1.1" id="Layer_1" x="0px" y="0px" width="634" height="644" viewBox="0 0 634 644" style="enable-background:new 0 0 634 644;" xml:space="preserve">
<g>
	<path style="fill:#FFFFFF;" d="M271.3,160.1c-64.3,0-116.6,52.3-116.6,116.6S207,393.3,271.3,393.3S387.9,341,387.9,276.7   S335.6,160.1,271.3,160.1z M271.3,378.4c-56.1,0-101.7-45.6-101.7-101.7S215.2,175,271.3,175S373,220.6,373,276.7   S327.4,378.4,271.3,378.4z"/>
	<path style="fill:#FFFFFF;" d="M605.9,334.7c-24.3-9.9-50.9-9.7-75,0.5c-24.1,10.2-42.8,29.2-52.7,53.4c-9.9,24.3-9.7,50.9,0.5,75   s29.2,42.8,53.4,52.7c11.9,4.8,24.4,7.3,36.9,7.3c12.9,0,25.9-2.6,38.1-7.8l0,0c24.1-10.2,42.8-29.2,52.7-53.4   c9.9-24.3,9.7-50.9-0.5-75.1C649.1,363.3,630.1,344.6,605.9,334.7z M646,456.9c-8.4,20.6-24.2,36.7-44.7,45.3l0,0   c-20.5,8.6-43.1,8.8-63.7,0.4c-20.6-8.4-36.7-24.2-45.3-44.7c-8.6-20.5-8.8-43.1-0.4-63.7s24.2-36.7,44.7-45.3   c10.4-4.4,21.4-6.6,32.3-6.6c10.6,0,21.2,2.1,31.3,6.2c20.6,8.4,36.7,24.2,45.3,44.7C654.2,413.7,654.4,436.3,646,456.9z"/>
	<path style="fill:#FFFFFF;" d="M722.7,471.4l39.6-0.5l-1.2-95.5l-39.6,0.5c-3-9.3-6.8-18.2-11.4-26.7l27.7-28.3l-68.3-66.7   l-27.7,28.3c-8.6-4.4-17.6-8-27-10.8l-0.5-39.6l-95.5,1.2l0.5,39.6c-9.1,3-17.9,6.7-26.2,11.2c-9.2-10.8-18.5-22-23.8-28.8   l41.3-17.4l-44.2-105.2l-44.5,18.7c-8-9.7-17.1-18.6-27-26.7l18.3-44.8l-105.7-43l-18.3,44.8c-12.7-1.2-25.4-1.1-38,0.2l-18.7-44.5   L127.3,81.6l18.7,44.5c-9.7,8.1-18.6,17.1-26.7,27l-44.8-18.3l-43,105.7l44.8,18.3c-1.2,12.7-1.1,25.4,0.2,38L32,315.5l44.2,105.2   l44.5-18.7c8.1,9.7,17.1,18.6,27,26.7l-18.3,44.8l105.7,43.1l18.3-44.8c12.7,1.2,25.4,1.1,38-0.2l18.7,44.5l97-40.8l9.4-0.1   c3,9.3,6.8,18.2,11.4,26.7l-27.7,28.3l68.3,66.7l27.7-28.3c8.6,4.4,17.6,8,27,10.7l0.5,39.6l95.5-1.2l-0.5-39.6   c9.3-3,18.2-6.8,26.7-11.4l28.3,27.7l66.7-68.3L712,498.4C716.4,489.8,720,480.8,722.7,471.4z M300.6,455.4l-5.6,0.8   c-14.9,2-30.3,2.1-45.5,0.2l-5.6-0.7L227,497.1l-78.1-31.9l16.9-41.4l-4.5-3.5c-12.2-9.3-23.1-20.1-32.4-32l-3.5-4.5l-41.2,17.3   l-32.7-77.8L92.7,306l-0.8-5.6c-2-14.9-2.1-30.3-0.2-45.5l0.7-5.6L51,232.4l31.9-78.1l41.4,16.9l3.5-4.5   c9.3-12.2,20.1-23.1,32-32.4l4.5-3.5L147,89.6l77.8-32.7l17.3,41.2l5.6-0.8c14.9-2,30.3-2.1,45.5-0.2l5.6,0.7l16.9-41.4l78.1,31.9   l-16.9,41.4l4.5,3.5c12.2,9.4,23.1,20.1,32.4,32l3.5,4.5l41.2-17.3l32.7,77.8l-42.5,17.9l2.4,6.6c0.8,2.1,4.4,7.2,10.6,15.1   l-54.1,55.5l28.3,27.7c-4.4,8.6-8,17.6-10.7,27l-39.6,0.5l1.1,87.6L318,496.6L300.6,455.4z M719.3,526.3l-45.9,47l-25.8-25.1   l-4.9,2.9c-10.4,6.1-21.8,11-33.7,14.4l-5.5,1.6l0.4,36l-65.7,0.8l-0.4-36l-5.5-1.4c-12-3.1-23.4-7.7-34-13.6l-5-2.8l-25.1,25.8   l-47-45.9l25.1-25.8l-2.9-4.9c-6.1-10.4-11-21.8-14.4-33.7l-1.6-5.5l-23.5,0.3l-2.5,1.1l-0.8-66.7l36-0.4l1.4-5.5   c3.1-12,7.7-23.4,13.6-34l2.8-5l-25.8-25.1l42.6-43.6c4.2,5.1,9.1,10.8,14.7,17.3l4.1,4.7l5.4-3.1c10.4-6.1,21.8-11,33.7-14.4   l5.5-1.6l-0.4-36l65.7-0.8l0.4,36l5.5,1.4c12,3.1,23.5,7.7,34,13.6l5,2.8l25.1-25.8l47,45.9L691.8,347l2.9,4.9   c6.1,10.4,11,21.8,14.4,33.7l1.6,5.5l36-0.4l0.8,65.7l-36,0.4l-1.4,5.5c-3.1,12-7.7,23.4-13.6,34l-2.8,5L719.3,526.3z"/>
</g>
</svg>